# xmcd
#
# Track frame offsets:
#	150
#	20640
#	36907
#	68792
#	80730
#	104540
#	121852
#	144145
#	162072
#	182535
#	196450
#	216270
#
# Disc length: 3147 seconds
#
# Revision: 1
# Processed by: cddbd v1.4PL0 Copyright (c) Steve Scherf et al.
# Submitted via: audiograbber 1.81.02
#
DISCID=a40c490c
DTITLE=Jay McShann - What A Wonderful World
DYEAR=1999
DGENRE=Jazz
TTITLE0=Piney Brown Blues
TTITLE1=Cherry Red
TTITLE2=Just For You
TTITLE3=Gee Baby Ain't I Good To You
TTITLE4=Crazy Legs and Friday Strut
TTITLE5=Rain Is Such A Lonesome Sound
TTITLE6=Land Of Dreams
TTITLE7=Lonely Boy Blues
TTITLE8=Hot Biscuits
TTITLE9=Blue Monday
TTITLE10=What A Wonderful World
TTITLE11=Until The Real Thing Comes Along
EXTD=
EXTT0=
EXTT1=
EXTT2=
EXTT3=
EXTT4=
EXTT5=
EXTT6=
EXTT7=
EXTT8=
EXTT9=
EXTT10=
EXTT11=
PLAYORDER=
